<?xml version="1.0" standalone="no"?>
<!DOCTYPE svg PUBLIC "-//W3C//DTD SVG 20010904//EN"
 "http://www.w3.org/TR/2001/REC-SVG-20010904/DTD/svg10.dtd">
<svg version="1.0" xmlns="http://www.w3.org/2000/svg"
 width="200.000000pt" height="197.000000pt" viewBox="0 0 200.000000 197.000000"
 preserveAspectRatio="xMidYMid meet">
<metadata>
Created by potrace 1.10, written by Peter Selinger 2001-2011
</metadata>
<g transform="translate(0.000000,197.000000) scale(0.100000,-0.100000)"
fill="#006699" stroke="none">
<g>
<g>
<path fill="#006699" stroke="none" d="M1023 1955 c-41 -18 -43 -26 -4 -15 27
8 166 -3 201 -16 10 -3 12 -2 5 5 -12 12 -120 41 -150 41 -11 -1 -35 -7 -52
-15z"/>
</g>
</g>
<g>
<g>
<path fill="#006699" stroke="none" d="M734 1884 c-17 -8 -44 -29 -60 -46
l-29 -30 54 33 c30 18 75 39 100 45 l46 13 -40 0 c-22 0 -54 -6 -71 -15z"/>
</g>
</g>
<g>
<g>
<path fill="#006699" stroke="none" d="M1130 1891 c25 -5 86 -22 135 -39 50
-16 91 -29 92 -28 1 1 -23 17 -53 36 -49 30 -65 34 -137 36 -68 3 -74 2 -37
-5z"/>
</g>
</g>
<g>
<g>
<path fill="#006699" stroke="none" d="M1330 1885 c0 -10 67 -35 92 -35 23 1
23 1 -2 14 -30 16 -90 30 -90 21z"/>
</g>
</g>
<g>
<g>
<path fill="#006699" stroke="none" d="M870 1864 c-36 -8 -69 -16 -75 -19 -22
-11 179 7 218 20 l42 13 -60 0 c-33 0 -89 -6 -125 -14z"/>
</g>
</g>
<g>
<g>
<path fill="#006699" stroke="none" d="M990 1815 c-41 -8 -132 -19 -202 -23
-117 -8 -132 -11 -200 -45 -93 -46 -179 -115 -241 -195 -27 -35 -67 -80 -88
-99 -52 -47 -81 -99 -114 -203 -23 -72 -26 -97 -22 -160 3 -41 1 -109 -5 -151
-15 -107 0 -180 62 -307 56 -113 125 -195 239 -284 36 -29 94 -81 129 -116 74
-75 136 -106 260 -131 100 -21 128 -18 312 28 300 75 403 112 489 177 105 78
193 218 211 332 5 31 16 102 25 157 9 55 25 129 36 164 34 112 24 241 -29 350
-35 74 -381 429 -449 461 -111 52 -280 70 -413 45z"/>
<path fill="#ffffff" stroke="none" d="M927 1583 c2 -6 -5 -13 -17 -16 -14 -4
-18 -10 -13 -22 4 -13 2 -16 -8 -13 -22 7 -23 40 -3 55 20 14 36 13 41 -4z"/>
<path fill="#ffffff" stroke="none" d="M1110 1577 c1 -7 19 -24 40 -39 48 -34
50 -51 8 -72 -40 -21 -57 -8 -39 30 10 23 9 30 -10 50 -29 31 -47 20 -69 -42
-9 -27 -23 -48 -29 -46 -8 2 -10 -4 -6 -18 7 -22 -5 -26 -23 -8 -21 21 -14 57
13 70 16 7 29 25 36 48 10 33 15 37 45 38 21 1 34 -3 34 -11z"/>
<path fill="#ffffff" stroke="none" d="M609 1569 c32 -11 42 -29 16 -29 -9 0
-12 -6 -9 -15 9 -21 -6 -19 -32 6 -12 12 -20 27 -17 35 6 17 3 17 42 3z"/>
<path fill="#ffffff" stroke="none" d="M1008 1546 c3 -12 -1 -17 -10 -14 -18
7 -68 -29 -68 -49 0 -11 -8 -14 -30 -11 -24 4 -30 1 -30 -14 0 -15 3 -16 26
-6 21 10 27 9 35 -3 14 -23 10 -37 -13 -45 -17 -5 -27 0 -43 20 -15 19 -30 26
-56 26 -20 0 -38 2 -40 4 -3 3 -3 23 -1 45 3 27 9 41 18 41 10 0 13 -7 8 -24
-4 -19 -1 -24 20 -28 19 -4 26 0 28 14 3 20 23 26 23 6 0 -6 10 -12 23 -13 17
-1 22 4 22 21 0 19 18 35 42 38 3 1 10 4 14 9 12 11 29 2 32 -17z"/>
<path fill="#ffffff" stroke="none" d="M1302 1558 c2 -6 27 -12 56 -14 69 -3
84 -14 41 -29 -22 -7 -39 -8 -46 -2 -9 6 -18 5 -28 -3 -11 -10 -19 -7 -37 13
-29 30 -48 24 -48 -14 0 -22 -5 -29 -20 -29 -17 0 -19 4 -14 28 4 15 14 35 22
45 17 19 68 23 74 5z"/>
<path fill="#ffffff" stroke="none" d="M690 1551 c0 -6 12 -9 28 -8 23 2 27
-2 25 -20 -2 -13 2 -23 7 -23 6 0 10 -4 10 -10 0 -5 -7 -10 -15 -10 -8 0 -15
-7 -15 -15 0 -8 8 -15 17 -15 15 0 16 -2 2 -15 -13 -13 -20 -14 -54 -2 -21 8
-41 19 -43 25 -5 17 20 15 47 -4 22 -16 23 -16 13 3 -8 15 -7 25 4 41 16 24
13 27 -14 13 -9 -5 -25 -12 -35 -15 -19 -6 -41 -51 -38 -78 2 -17 -10 -22 -46
-21 -7 1 -13 -3 -13 -8 0 -5 -9 -9 -20 -9 -12 0 -17 -5 -14 -13 3 -8 -2 -20
-10 -27 -13 -10 -17 -9 -22 4 -6 15 -9 15 -30 1 -12 -8 -30 -12 -38 -9 -21 8
-17 63 6 75 29 15 42 1 23 -27 -17 -27 -5 -33 19 -9 8 8 21 15 28 15 7 0 2 6
-12 13 -35 18 -37 45 -5 57 35 13 48 4 43 -31 -5 -30 6 -40 16 -14 3 8 13 15
22 15 11 0 14 5 10 16 -7 19 12 47 25 38 5 -3 6 -10 3 -16 -4 -7 -2 -8 5 -4 6
4 9 12 6 17 -10 15 5 49 21 49 8 0 17 7 20 15 7 16 24 21 24 6z"/>
<path fill="#ffffff" stroke="none" d="M576 1506 c21 -22 18 -26 -21 -26 -22
0 -35 5 -35 13 0 29 32 36 56 13z"/>
<path fill="#ffffff" stroke="none" d="M1425 1490 c4 -6 19 -9 33 -8 23 3 27
-1 30 -24 4 -37 -24 -37 -57 -2 -19 20 -30 24 -52 19 -17 -4 -29 -2 -29 3 0
20 64 30 75 12z"/>
<path fill="#ffffff" stroke="none" d="M1092 1445 c-3 -16 -11 -25 -23 -25
-23 0 -24 14 -2 39 21 25 32 19 25 -14z"/>
<path fill="#ffffff" stroke="none" d="M1298 1468 c-5 -15 -68 -24 -68 -10 0
15 13 22 43 22 18 0 27 -4 25 -12z"/>
<path fill="#ffffff" stroke="none" d="M1365 1460 c17 -6 25 -16 22 -24 -6
-16 16 -29 48 -30 14 -1 21 -9 23 -26 3 -19 1 -22 -8 -13 -17 16 -40 5 -51
-23 -11 -31 -33 -32 -26 -1 2 12 8 30 12 40 6 13 2 17 -15 17 -18 0 -21 4 -17
20 5 19 2 20 -29 14 -37 -7 -47 8 -16 25 22 13 25 13 57 1z"/>
<path fill="#ffffff" stroke="none" d="M1595 1461 c3 -5 1 -12 -5 -16 -21 -13
-9 -24 15 -13 34 15 50 0 29 -30 -19 -28 -27 -28 -58 3 -14 14 -28 25 -31 25
-3 0 -5 -11 -5 -25 0 -22 -9 -30 -32 -26 -5 0 -8 -6 -8 -15 0 -14 -3 -14 -15
-4 -17 14 -20 46 -6 55 5 3 12 1 16 -5 9 -15 25 -12 25 5 0 40 56 75 75 46z"/>
<path fill="#ffffff" stroke="none" d="M1245 1419 c3 -10 13 -20 21 -23 8 -3
12 -10 9 -16 -4 -6 -11 -8 -16 -5 -5 4 -12 -1 -15 -9 -4 -11 -14 -14 -29 -10
-13 3 -32 1 -43 -5 -12 -6 -23 -7 -26 -2 -3 5 -15 7 -25 4 -10 -3 -22 0 -25 6
-10 16 -26 13 -26 -4 0 -8 -6 -15 -14 -15 -17 0 -30 30 -18 42 14 14 67 5 64
-10 -2 -10 2 -10 16 -3 10 6 40 11 65 13 48 3 68 27 25 29 -13 1 -27 2 -33 4
-5 1 -14 3 -18 3 -5 1 -6 6 -2 11 10 17 84 9 90 -10z"/>
<path fill="#ffffff" stroke="none" d="M788 1404 c27 -18 29 -34 4 -34 -10 0
-23 -5 -29 -11 -15 -15 -25 4 -17 36 7 29 12 30 42 9z"/>
<path fill="#ffffff" stroke="none" d="M1320 1411 c0 -5 12 -12 26 -15 19 -5
24 -10 16 -18 -7 -7 -21 -5 -46 7 -40 19 -47 35 -16 35 11 0 20 -4 20 -9z"/>
<path fill="#ffffff" stroke="none" d="M706 1399 c3 -6 3 -14 -2 -18 -5 -3 -9
-13 -9 -21 0 -8 -8 -16 -17 -18 -13 -3 -18 3 -18 20 0 37 31 61 46 37z"/>
<path fill="#ffffff" stroke="none" d="M1020 1395 c0 -8 -9 -15 -20 -15 -11 0
-20 -4 -20 -10 0 -5 6 -10 14 -10 13 0 32 -47 22 -57 -8 -8 -26 7 -26 23 0 8
-9 14 -20 14 -23 0 -25 9 -8 45 13 28 58 36 58 10z"/>
<path fill="#ffffff" stroke="none" d="M894 1384 c9 -23 -3 -37 -20 -23 -11 9
-18 9 -26 1 -9 -9 -8 -12 6 -12 9 0 14 -4 11 -10 -3 -5 -1 -10 6 -10 6 0 18
-8 25 -17 16 -21 18 -73 4 -73 -5 0 -10 9 -10 19 0 25 -18 37 -26 18 -7 -19
-64 -20 -71 -2 -4 11 -10 12 -23 5 -10 -6 -23 -10 -29 -10 -15 0 -14 35 2 48
16 14 67 3 67 -14 0 -19 26 -18 34 1 3 8 2 15 -3 15 -15 0 -23 51 -10 66 16
19 55 18 63 -2z"/>
<path fill="#ffffff" stroke="none" d="M640 1385 c0 -4 -7 -20 -16 -37 l-17
-32 -18 23 c-24 30 -24 44 0 36 11 -3 22 -1 26 5 6 10 25 14 25 5z"/>
<path fill="#ffffff" stroke="none" d="M1318 1343 c5 -18 -10 -16 -34 2 -18
15 -18 15 5 13 14 -2 26 -9 29 -15z"/>
<path fill="#ffffff" stroke="none" d="M1606 1346 c8 -8 14 -20 14 -26 0 -7
12 -10 27 -8 21 2 29 -2 31 -16 3 -13 0 -17 -10 -13 -8 3 -33 2 -56 -3 -42 -7
-62 1 -62 28 0 10 8 13 25 10 13 -3 22 -1 19 3 -3 5 -16 9 -30 9 -25 0 -33 15
-11 23 22 10 38 7 53 -7z"/>
<path fill="#ffffff" stroke="none" d="M930 1335 c0 -8 5 -15 10 -15 6 0 10
-7 10 -16 0 -11 -5 -14 -16 -10 -9 3 -18 6 -20 6 -2 0 -4 11 -4 25 0 14 5 25
10 25 6 0 10 -7 10 -15z"/>
<path fill="#ffffff" stroke="none" d="M1270 1310 c0 -6 -9 -10 -20 -10 -11 0
-20 -4 -20 -8 0 -4 -15 -12 -32 -17 -23 -7 -32 -15 -30 -27 2 -11 -3 -18 -13
-18 -9 0 -22 -13 -28 -30 -6 -16 -15 -30 -19 -30 -17 0 -7 40 17 68 14 17 25
35 25 41 0 6 3 10 8 9 4 0 18 4 32 10 25 11 24 11 -8 11 -42 1 -39 23 4 32 30
6 84 -14 84 -31z"/>
<path fill="#ffffff" stroke="none" d="M1480 1340 c0 -5 -9 -10 -20 -10 -11 0
-20 5 -20 10 0 6 9 10 20 10 11 0 20 -4 20 -10z"/>
<path fill="#ffffff" stroke="none" d="M675 1302 c34 -16 31 -26 -11 -51 -43
-26 -48 -26 -41 -2 8 32 -21 33 -56 1 -37 -32 -57 -26 -57 18 0 18 4 23 16 18
9 -3 21 -3 27 1 7 4 23 9 36 11 14 2 32 13 40 25 13 18 16 19 19 6 2 -9 14
-21 27 -27z"/>
<path fill="#ffffff" stroke="none" d="M1080 1320 c0 -5 -4 -10 -10 -10 -5 0
-10 -7 -10 -15 0 -11 7 -14 25 -9 15 4 25 2 25 -4 0 -6 -16 -14 -35 -18 -19
-3 -35 -11 -35 -17 0 -8 -4 -7 -12 1 -8 8 -8 15 0 25 7 8 9 17 6 20 -4 3 -4
13 -1 22 7 16 47 21 47 5z"/>
<path fill="#ffffff" stroke="none" d="M1140 1301 c0 -6 -4 -13 -10 -16 -5 -3
-10 1 -10 9 0 9 5 16 10 16 6 0 10 -4 10 -9z"/>
<path fill="#ffffff" stroke="none" d="M1395 1301 c-16 -15 -96 -40 -111 -34
-8 3 -14 0 -14 -6 0 -6 11 -11 24 -11 17 0 29 -9 38 -27 10 -20 21 -27 36 -26
15 2 26 -6 37 -26 9 -19 26 -32 45 -36 29 -6 43 -35 17 -35 -22 0 -67 24 -67
36 0 6 -7 17 -15 24 -12 10 -15 10 -15 -3 0 -9 -12 -25 -26 -36 -21 -16 -35
-20 -66 -15 -36 6 -43 4 -81 -34 -47 -46 -82 -62 -135 -62 -25 -1 -46 -9 -66
-26 -25 -22 -27 -28 -18 -50 10 -21 9 -24 -8 -24 -10 0 -22 5 -25 10 -3 6 -17
7 -31 4 -14 -4 -31 -1 -39 6 -23 19 -30 4 -11 -25 9 -14 26 -25 37 -25 33 0
71 -45 67 -82 -4 -42 -23 -46 -36 -9 -6 16 -19 34 -30 40 -32 17 -34 -22 -5
-101 20 -54 28 -66 35 -54 14 24 28 9 22 -23 -4 -20 1 -35 21 -59 18 -21 25
-38 20 -50 -6 -15 -10 -12 -36 16 -24 27 -30 30 -35 17 -4 -9 -2 -27 4 -41 9
-19 9 -24 -2 -24 -24 0 -37 28 -41 87 -1 32 -9 72 -16 88 -12 30 -13 30 -17 6
-2 -14 2 -51 8 -83 11 -50 11 -61 -4 -83 -32 -49 -116 -85 -116 -49 0 16 -14
15 -72 -8 -26 -10 -47 -38 -28 -38 6 0 10 -5 10 -11 0 -7 -14 -9 -42 -5 -57 9
-83 9 -145 1 -51 -7 -53 -7 -53 15 0 26 26 60 47 60 19 0 16 -20 -5 -36 -22
-18 -1 -19 45 -2 27 10 38 9 68 -5 48 -23 58 -22 45 3 -9 17 -6 25 17 46 l28
26 -32 -6 c-18 -3 -46 -9 -62 -12 -16 -3 -37 -14 -47 -25 -9 -10 -21 -19 -26
-19 -15 0 -8 37 10 52 22 20 191 59 261 61 57 2 81 -16 38 -27 -14 -3 -27 -15
-30 -26 -7 -27 9 -25 39 5 24 24 25 30 19 90 -7 65 -1 120 13 111 4 -2 5 17 4
44 -2 26 1 57 6 67 8 15 6 22 -9 31 -10 7 -19 18 -19 26 0 7 -7 19 -15 26 -12
10 -18 10 -30 0 -8 -7 -21 -10 -29 -7 -8 3 -20 -1 -26 -9 -12 -13 -40 -20 -40
-9 0 16 41 47 54 42 27 -11 26 9 -2 42 -34 41 -68 39 -92 -4 -18 -32 -55 -49
-44 -21 10 27 -26 19 -54 -11 -26 -29 -46 -17 -22 12 22 26 -8 17 -31 -9 -21
-24 -49 -25 -49 -2 0 7 12 23 26 37 20 19 36 24 77 24 29 0 62 6 74 13 12 6
32 12 46 12 20 0 23 4 20 28 -5 40 8 53 45 46 40 -8 41 -19 2 -36 -33 -14 -40
-31 -12 -27 34 5 102 -22 118 -46 31 -47 46 -24 19 29 -8 15 -15 33 -15 39 0
18 52 -37 66 -70 8 -18 19 -33 24 -33 15 0 12 10 -14 45 -24 30 -29 50 -27 90
1 26 14 9 35 -47 16 -43 36 -64 36 -38 0 17 53 37 115 44 77 9 108 34 92 76
-8 21 -8 35 1 54 18 40 32 31 32 -20 0 -42 2 -45 16 -33 9 7 35 13 57 14 37 0
41 3 41 24 0 14 -5 26 -12 29 -6 2 -12 -1 -12 -8 0 -6 -5 -8 -11 -5 -6 4 -8
13 -5 21 8 20 -18 28 -43 14 -24 -12 -28 2 -6 20 8 7 15 18 15 26 0 18 32 34
57 28 12 -3 24 -1 27 5 4 6 24 11 44 11 22 0 32 -4 27 -9z"/>
<path fill="#ffffff" stroke="none" d="M980 1288 c0 -7 -9 -26 -20 -43 -11
-16 -20 -40 -20 -52 0 -43 32 -21 44 30 7 31 26 37 26 7 0 -11 6 -20 13 -20 7
0 18 9 25 20 12 20 42 28 42 11 0 -5 -7 -14 -15 -21 -9 -7 -13 -21 -10 -31 8
-24 -11 -34 -24 -12 -6 11 -11 13 -11 5 0 -7 7 -23 15 -36 10 -15 13 -34 9
-54 -9 -44 -34 -42 -34 2 0 19 -4 38 -10 41 -5 3 -10 15 -10 26 0 12 -4 17
-11 13 -7 -4 -9 -22 -6 -45 8 -58 -18 -50 -55 18 -24 42 -23 62 9 111 28 42
43 53 43 30z"/>
<path fill="#ffffff" stroke="none" d="M380 1275 c0 -19 -15 -32 -31 -28 -16
4 -19 0 -19 -24 0 -16 5 -34 12 -41 8 -8 9 -15 2 -22 -17 -17 -36 15 -36 60 0
22 3 44 6 48 5 8 66 15 66 7z"/>
<path fill="#ffffff" stroke="none" d="M450 1266 c0 -15 -19 -34 -35 -35 -5 0
-12 -10 -15 -22 -8 -31 -30 -36 -30 -7 0 27 16 50 45 66 27 15 35 15 35 -2z"/>
<path fill="#ffffff" stroke="none" d="M1520 1270 c0 -5 9 -10 20 -10 11 0 20
-4 20 -10 0 -13 -43 -13 -57 1 -7 7 -16 2 -28 -18 -15 -23 -15 -25 -2 -15 19
16 59 12 65 -6 2 -7 -2 -12 -9 -10 -8 1 -28 -3 -46 -11 -28 -11 -34 -11 -48 2
-21 22 -19 27 18 58 32 28 67 38 67 19z"/>
<path fill="#ffffff" stroke="none" d="M1638 1258 c-5 -15 -68 -24 -68 -9 0 9
21 16 58 20 8 0 12 -5 10 -11z"/>
<path fill="#ffffff" stroke="none" d="M1365 1250 c3 -5 12 -7 19 -4 26 10 27
-16 1 -28 -22 -10 -28 -9 -36 3 -5 8 -9 20 -9 27 0 14 16 16 25 2z"/>
<path fill="#ffffff" stroke="none" d="M786 1231 c15 -11 20 -22 14 -26 -5 -3
-10 -18 -10 -32 0 -25 1 -26 20 -8 12 11 26 15 37 10 15 -6 15 -8 3 -13 -19
-7 -40 -34 -33 -45 2 -4 6 -18 9 -31 3 -18 -1 -25 -18 -29 -27 -7 -41 1 -34
20 8 20 -22 63 -44 63 -19 0 -43 23 -34 33 3 3 20 1 37 -4 43 -12 43 -12 22
11 -12 13 -15 27 -11 45 8 30 11 31 42 6z"/>
<path fill="#ffffff" stroke="none" d="M513 1215 c18 -25 16 -45 -4 -45 -5 0
-14 10 -19 23 -5 12 -9 16 -9 10 -1 -7 -7 -13 -15 -13 -22 0 -27 -42 -8 -63
16 -18 16 -19 -2 -16 -10 2 -24 13 -31 24 -18 28 7 92 38 98 12 2 24 5 27 5 3
1 13 -10 23 -23z"/>
<path fill="#ffffff" stroke="none" d="M711 1230 c20 0 8 -20 -16 -26 -14 -3
-25 -11 -25 -17 0 -6 -7 -19 -16 -28 -13 -14 -21 -16 -35 -8 -11 5 -19 16 -19
23 0 8 -12 17 -26 20 -14 4 -23 12 -21 19 7 19 47 9 67 -15 15 -19 20 -20 34
-9 9 7 16 22 16 33 0 14 5 18 16 14 9 -3 20 -6 25 -6z"/>
<path fill="#ffffff" stroke="none" d="M1710 1230 c0 -5 8 -10 17 -10 12 0 14
-3 7 -10 -7 -7 -19 -6 -37 3 -15 8 -24 17 -20 20 10 11 33 8 33 -3z"/>
<path fill="#ffffff" stroke="none" d="M1606 1205 c4 -8 10 -13 14 -10 4 3 13
-2 20 -10 11 -14 15 -14 31 1 10 9 25 14 34 10 19 -7 11 -26 -11 -26 -8 0 -14
-4 -14 -9 0 -17 -34 -22 -42 -6 -11 19 -28 10 -28 -15 0 -21 -46 -50 -80 -50
-11 0 -20 2 -20 4 0 2 -3 11 -6 20 -5 12 0 16 21 16 15 0 24 4 20 10 -4 6 -10
8 -15 5 -16 -10 -60 7 -60 22 0 12 7 14 28 9 15 -4 36 -8 47 -10 11 -2 23 -4
28 -5 4 0 7 -9 8 -18 1 -12 4 -9 8 7 11 37 3 52 -20 39 -14 -7 -19 -6 -19 4 0
8 3 17 7 20 12 13 44 7 49 -8z"/>
<path fill="#ffffff" stroke="none" d="M288 1195 c-2 -5 -6 -9 -10 -7 -5 1 -8
-5 -8 -12 0 -17 43 -66 58 -66 13 0 24 -29 16 -42 -4 -7 -10 -5 -15 5 -10 17
-45 12 -53 -8 -5 -13 27 -29 53 -25 18 2 9 -21 -13 -34 -13 -9 -19 -7 -27 7
-6 9 -19 17 -29 17 -27 0 -25 12 5 48 14 17 21 33 16 36 -5 4 -12 2 -16 -4
-13 -22 -27 -9 -22 20 4 16 2 32 -4 36 -14 8 20 46 38 42 8 -2 13 -7 11 -13z"/>
<path fill="#ffffff" stroke="none" d="M1770 1150 c0 -21 -25 -4 -28 20 -4 21
-2 22 12 7 9 -8 16 -21 16 -27z"/>
<path fill="#ffffff" stroke="none" d="M410 1115 c0 -3 -9 -5 -19 -5 -19 0
-35 25 -26 41 5 7 45 -24 45 -36z"/>
<path fill="#ffffff" stroke="none" d="M900 1134 c0 -8 -2 -14 -4 -14 -2 0
-11 -3 -20 -6 -19 -7 -22 16 -4 34 13 13 28 7 28 -14z"/>
<path fill="#ffffff" stroke="none" d="M611 1140 c23 -13 26 -35 3 -26 -8 3
-25 1 -36 -5 -24 -13 -32 -7 -23 20 7 23 26 27 56 11z"/>
<path fill="#ffffff" stroke="none" d="M1130 1136 c0 -7 -8 -16 -17 -20 -10
-3 -24 -9 -30 -12 -8 -3 -13 2 -13 14 0 19 14 28 48 31 6 0 12 -5 12 -13z"/>
<path fill="#ffffff" stroke="none" d="M1787 1126 c-2 -6 -19 -11 -37 -12 -19
-1 -36 -6 -38 -12 -4 -14 -22 -16 -22 -3 0 5 7 16 15 24 16 17 87 19 82 3z"/>
<path fill="#ffffff" stroke="none" d="M1138 1098 c-6 -17 -36 -34 -44 -25 -4
4 1 14 12 22 23 18 37 19 32 3z"/>
<path fill="#ffffff" stroke="none" d="M1390 1095 c0 -18 -59 -49 -127 -65
-55 -13 -67 -24 -33 -33 33 -8 23 -27 -15 -27 -19 0 -35 5 -35 11 0 8 -5 8
-15 -1 -8 -7 -15 -10 -15 -6 0 4 -13 0 -28 -8 -42 -22 -56 -56 -47 -118 4 -29
6 -101 5 -159 -1 -85 1 -109 14 -122 9 -8 16 -21 16 -27 0 -8 8 -10 23 -5 12
4 64 12 116 17 71 8 106 8 147 -2 56 -14 70 -37 18 -32 -32 3 -150 5 -204 3
-19 0 -48 -6 -64 -13 -26 -10 -31 -9 -47 10 -22 28 -25 28 -61 -8 -16 -16 -34
-30 -39 -30 -18 0 -9 19 22 44 l30 26 -12 75 c-9 59 -9 84 1 120 11 38 10 50
-4 85 -26 65 -21 85 30 127 25 21 51 38 57 38 7 0 30 19 52 43 33 34 47 42 76
42 20 0 52 7 70 15 44 19 69 19 69 0z"/>
<path fill="#ffffff" stroke="none" d="M638 1082 c9 9 12 8 12 -3 0 -37 -54
-57 -90 -34 -19 12 -100 13 -100 2 0 -5 -9 -7 -20 -4 -16 4 -20 0 -20 -19 0
-14 -6 -24 -14 -24 -20 0 -28 -28 -15 -51 5 -11 7 -29 4 -39 -7 -22 -67 -72
-81 -68 -5 1 -19 -4 -32 -11 -17 -9 -27 -10 -37 -1 -9 7 -15 8 -20 0 -14 -22
-25 -8 -24 33 2 42 24 81 41 71 18 -12 67 18 77 47 8 23 16 29 38 29 26 1 27
2 10 15 -22 16 -16 50 10 59 21 8 29 0 15 -17 -6 -7 -7 -18 -3 -26 6 -10 11
-5 16 17 5 27 11 31 38 30 18 0 39 -4 48 -9 9 -4 20 -4 25 1 6 6 20 4 36 -4
24 -13 27 -12 32 7 5 20 6 20 24 4 14 -13 21 -14 30 -5z"/>
<path fill="#ffffff" stroke="none" d="M1600 1079 c0 -5 -7 -9 -15 -9 -15 0
-20 12 -9 23 8 8 24 -1 24 -14z"/>
<path fill="#ffffff" stroke="none" d="M1680 1085 c0 -16 -39 -36 -52 -28 -15
8 -8 24 15 33 32 13 37 12 37 -5z"/>
<path fill="#ffffff" stroke="none" d="M1527 1064 c8 -8 28 -14 44 -14 31 0
64 -23 55 -38 -2 -4 5 -8 17 -8 25 0 67 38 49 44 -19 6 -14 22 8 22 11 0 20
-4 20 -10 0 -5 7 -10 15 -10 11 0 14 -7 10 -22 -6 -27 18 -63 35 -53 15 9 40
-13 40 -37 0 -23 -27 -35 -43 -19 -9 10 -9 12 2 9 7 -2 16 3 18 10 4 10 -6 12
-40 8 -73 -9 -81 -15 -56 -37 27 -24 18 -36 -16 -21 -19 9 -25 19 -25 43 0 28
3 31 24 27 20 -4 26 0 31 20 9 37 -2 39 -36 6 -18 -16 -33 -24 -36 -18 -2 6
-16 9 -31 7 -39 -6 -105 10 -110 26 -3 9 0 12 10 8 9 -3 33 1 54 8 39 14 39
14 9 16 -16 1 -44 3 -62 5 -23 3 -36 -2 -45 -14 -23 -33 -68 -56 -81 -43 -9 9
-6 17 14 34 14 12 19 18 12 14 -14 -10 -73 1 -73 13 0 14 27 19 39 7 8 -8 15
-6 28 5 34 29 97 36 120 12z"/>
<path fill="#ffffff" stroke="none" d="M483 1015 c1 -5 -6 -11 -15 -13 -11 -2
-18 3 -18 13 0 17 30 18 33 0z"/>
<path fill="#ffffff" stroke="none" d="M1333 1011 c16 -6 17 -9 5 -18 -8 -7
-19 -8 -27 -3 -8 4 -20 6 -28 3 -7 -3 -13 -1 -13 4 0 23 27 29 63 14z"/>
<path fill="#ffffff" stroke="none" d="M1336 934 c-31 -27 -108 -41 -141 -26
-19 9 -28 7 -48 -9 -30 -23 -67 -25 -67 -4 0 8 5 15 12 15 7 0 24 11 38 25 25
24 29 25 66 12 40 -14 117 -8 82 5 -27 11 -22 31 5 22 12 -4 25 -11 28 -16 3
-4 14 1 25 13 18 20 19 20 23 3 2 -10 -8 -28 -23 -40z"/>
<path fill="#ffffff" stroke="none" d="M1558 962 c34 -2 62 -8 62 -13 0 -5 7
-9 15 -9 8 0 15 -5 15 -10 0 -16 -28 -24 -43 -12 -19 15 -67 24 -67 12 0 -5
14 -10 30 -10 18 0 33 -6 36 -15 4 -8 13 -15 20 -15 8 0 17 -8 21 -17 3 -10
13 -26 21 -35 18 -21 9 -50 -15 -47 -33 3 -42 -1 -37 -16 4 -8 -1 -17 -10 -21
-9 -3 -13 -10 -10 -15 3 -5 -4 -9 -15 -9 -12 0 -21 5 -21 10 0 6 4 10 9 10 5
0 12 14 16 30 5 21 13 30 26 30 10 0 19 5 19 10 0 6 -4 10 -10 10 -5 0 -10 9
-10 20 0 11 -7 20 -15 20 -11 0 -14 -7 -9 -25 5 -21 3 -24 -11 -19 -15 6 -16
3 -11 -22 6 -25 2 -32 -25 -48 -22 -13 -34 -15 -42 -7 -7 7 -4 13 14 21 21 9
21 9 -8 4 -29 -5 -33 -3 -33 15 0 23 43 56 60 46 5 -3 17 1 26 10 15 15 12 16
-40 12 -71 -5 -84 10 -16 19 28 4 52 9 54 13 8 12 -109 6 -122 -6 -7 -7 -19
-13 -25 -13 -7 0 -13 -16 -14 -36 -2 -43 -11 -54 -55 -69 -27 -9 -38 -8 -61 4
-22 13 -31 13 -47 3 -17 -10 -25 -9 -45 4 -14 9 -25 23 -25 30 0 16 36 19 46
3 3 -6 17 -8 31 -5 15 4 29 1 39 -9 10 -10 25 -13 42 -9 42 10 46 20 6 16 -31
-4 -35 -2 -32 14 2 13 12 19 31 19 44 1 53 20 16 35 -28 12 -32 11 -41 -4 -6
-10 -19 -16 -31 -14 -12 1 -29 -2 -37 -7 -20 -13 -131 -13 -127 0 7 20 81 37
137 31 34 -3 49 -2 40 4 -12 8 -12 10 3 16 10 3 28 4 41 2 18 -4 26 0 29 13 8
31 52 41 104 24 51 -18 71 -12 27 7 -38 16 -37 15 -29 28 4 7 14 8 24 4 9 -4
44 -10 79 -12z"/>
<path fill="#ffffff" stroke="none" d="M705 950 c3 -5 -5 -15 -19 -21 -25 -12
-38 -33 -33 -54 1 -5 7 -8 12 -7 27 9 85 10 80 2 -4 -6 7 -10 24 -10 17 0 31
-4 31 -10 0 -5 -7 -10 -15 -10 -8 0 -24 -6 -35 -12 -14 -9 -23 -10 -28 -3 -10
15 -53 17 -69 4 -10 -9 -17 -9 -25 -1 -7 7 -22 12 -33 12 -35 0 -37 12 -5 32
17 10 29 23 28 29 -3 12 56 59 73 59 4 0 11 -4 14 -10z"/>
<path fill="#ffffff" stroke="none" d="M570 925 c0 -20 -58 -72 -89 -80 -15
-4 -27 -1 -32 6 -6 10 -11 10 -21 1 -8 -6 -19 -7 -27 -3 -10 7 -10 14 3 40 9
17 18 31 20 31 14 0 35 -13 31 -20 -3 -4 2 -13 9 -20 19 -15 47 -1 70 35 18
28 36 33 36 10z"/>
<path fill="#ffffff" stroke="none" d="M1760 895 c0 -30 -15 -33 -30 -6 -14
27 -13 31 10 31 15 0 20 -7 20 -25z"/>
<path fill="#ffffff" stroke="none" d="M1198 468 c-6 -18 -89 -38 -153 -37
-33 1 -68 -1 -77 -6 -25 -10 -23 12 2 25 11 6 52 11 92 12 40 0 82 4 93 9 30
12 47 11 43 -3z"/>
<path fill="#ffffff" stroke="none" d="M1530 457 c0 -23 -33 -44 -78 -51 -24
-4 -61 -16 -83 -27 -32 -16 -56 -19 -125 -17 -89 2 -106 10 -81 35 12 12 22
13 53 4 59 -16 86 -13 138 14 26 14 57 25 69 26 12 0 38 6 57 13 47 18 50 18
50 3z"/>
<path fill="#ffffff" stroke="none" d="M884 421 c31 -12 161 -16 200 -6 22 6
28 5 24 -6 -7 -21 -94 -39 -162 -33 -84 7 -97 7 -213 1 -59 -3 -103 -2 -103 3
0 32 194 63 254 41z"/>
</g>
<g>
<g>
<path fill="#006699" stroke="none" d="M770 993 c0 -13 29 -38 35 -31 3 3 -4
13 -15 23 -11 10 -20 13 -20 8z"/>
</g>
</g>
<g>
<g>
<path fill="#006699" stroke="none" d="M718 533 c7 -3 16 -2 19 1 4 3 -2 6
-13 5 -11 0 -14 -3 -6 -6z"/>
</g>
</g>
<g>
<g>
<path fill="#006699" stroke="none" d="M340 970 c0 -5 7 -7 15 -4 8 4 15 8 15
10 0 2 -7 4 -15 4 -8 0 -15 -4 -15 -10z"/>
</g>
</g>
<g>
<g>
<path fill="#006699" stroke="none" d="M316 932 c-7 -8 -29 -17 -47 -21 -39
-8 -50 -36 -23 -56 16 -11 21 -10 34 8 8 12 14 25 13 28 -3 11 37 43 44 36 3
-4 -1 -15 -10 -25 -10 -10 -17 -21 -17 -25 0 -11 52 21 66 41 13 18 11 20 -16
24 -17 3 -35 -1 -44 -10z"/>
</g>
</g>
<g>
<g>
<path fill="#006699" stroke="none" d="M1578 993 c6 -2 18 -2 25 0 6 3 1 5
-13 5 -14 0 -19 -2 -12 -5z"/>
</g>
</g>
</g>
<g>
<g>
<path fill="#006699" stroke="none" d="M522 1789 c-40 -20 -117 -97 -107 -107
2 -3 23 8 46 24 22 16 63 43 91 61 64 41 66 43 37 43 -13 0 -43 -10 -67 -21z"/>
</g>
</g>
<g>
<g>
<path fill="#006699" stroke="none" d="M1420 1804 c0 -7 145 -74 162 -74 7 0
3 7 -9 15 -26 18 -153 67 -153 59z"/>
</g>
</g>
<g>
<g>
<path fill="#006699" stroke="none" d="M373 1722 c-33 -30 -69 -92 -54 -92 10
0 42 39 76 93 22 34 15 34 -22 -1z"/>
</g>
</g>
<g>
<g>
<path fill="#006699" stroke="none" d="M1670 1703 c0 -26 68 -99 100 -108 20
-6 15 1 -22 35 -27 23 -48 48 -48 55 0 7 -7 18 -15 25 -12 10 -15 9 -15 -7z"/>
</g>
</g>
<g>
<g>
<path fill="#006699" stroke="none" d="M1625 1626 c56 -65 141 -133 151 -123
6 5 -165 165 -193 181 -10 5 9 -21 42 -58z"/>
</g>
</g>
<g>
<g>
<path fill="#006699" stroke="none" d="M275 1555 c-64 -47 -100 -92 -110 -140
l-7 -30 19 25 c10 14 45 52 79 85 50 49 94 106 82 105 -2 0 -30 -20 -63 -45z"/>
</g>
</g>
<g>
<g>
<path fill="#006699" stroke="none" d="M1820 1501 c26 -38 100 -97 100 -80 0
15 -93 109 -109 109 -8 0 -4 -11 9 -29z"/>
</g>
</g>
<g>
<g>
<path fill="#006699" stroke="none" d="M106 1410 c-9 -22 -16 -50 -16 -62 0
-22 0 -22 14 -3 13 20 32 105 23 105 -3 0 -12 -18 -21 -40z"/>
</g>
</g>
<g>
<g>
<path fill="#006699" stroke="none" d="M1849 1393 c21 -37 50 -68 57 -61 9 10
-21 55 -47 68 -18 10 -19 10 -10 -7z"/>
</g>
</g>
<g>
<g>
<path fill="#006699" stroke="none" d="M1939 1255 c18 -21 40 -52 48 -69 l14
-31 -6 40 c-8 47 -13 54 -57 79 l-33 20 34 -39z"/>
</g>
</g>
<g>
<g>
<path fill="#006699" stroke="none" d="M88 1263 c-25 -29 -28 -63 -16 -158 9
-70 13 -83 18 -60 4 17 5 51 2 76 -2 25 1 70 7 99 13 60 11 68 -11 43z"/>
</g>
</g>
<g>
<g>
<path fill="#006699" stroke="none" d="M17 1170 c-4 -14 -6 -38 -6 -55 1 -27
2 -26 10 10 11 45 7 85 -4 45z"/>
</g>
</g>
<g>
<g>
<path fill="#006699" stroke="none" d="M1947 1074 c-4 -47 -16 -108 -30 -146
-14 -35 -27 -84 -31 -108 -6 -44 -6 -43 20 20 48 120 53 136 59 196 3 32 2 73
-3 89 -7 25 -10 17 -15 -51z"/>
</g>
</g>
<g>
<g>
<path fill="#006699" stroke="none" d="M26 966 c-11 -54 -14 -99 -9 -127 l7
-44 7 35 c10 46 23 220 17 220 -3 0 -13 -38 -22 -84z"/>
</g>
</g>
<g>
<g>
<path fill="#006699" stroke="none" d="M67 843 c-8 -13 8 -142 26 -204 9 -31
22 -49 45 -62 l32 -19 -9 24 c-5 12 -23 50 -40 83 -21 39 -34 83 -39 125 -4
36 -11 60 -15 53z"/>
</g>
</g>
<g>
<g>
<path fill="#006699" stroke="none" d="M1948 820 c-4 -14 -9 -43 -11 -65 l-5
-40 14 34 c9 18 14 48 12 65 -4 30 -4 30 -10 6z"/>
</g>
</g>
<g>
<g>
<path fill="#006699" stroke="none" d="M1859 623 c-14 -51 -24 -93 -22 -93 14
0 54 115 51 147 -3 34 -6 28 -29 -54z"/>
</g>
</g>
<g>
<g>
<path fill="#006699" stroke="none" d="M104 531 c9 -16 21 -33 27 -37 8 -5 8
-1 0 13 -6 11 -8 23 -5 26 3 3 -4 11 -16 17 -21 11 -21 11 -6 -19z"/>
</g>
</g>
<g>
<g>
<path fill="#006699" stroke="none" d="M180 488 c0 -24 51 -89 76 -99 56 -21
58 -9 9 42 -57 58 -85 77 -85 57z"/>
</g>
</g>
<g>
<g>
<path fill="#006699" stroke="none" d="M1754 394 c-123 -130 -109 -131 44 -3
24 20 47 68 37 77 -3 3 -39 -30 -81 -74z"/>
</g>
</g>
<g>
<g>
<path fill="#006699" stroke="none" d="M306 327 c11 -9 36 -18 56 -22 20 -4
51 -18 69 -31 43 -31 52 -30 14 2 -42 35 -75 51 -120 59 -37 7 -39 6 -19 -8z"/>
</g>
</g>
<g>
<g>
<path fill="#006699" stroke="none" d="M1669 239 c-27 -32 -63 -61 -94 -75
l-50 -24 43 0 c36 0 47 6 83 42 41 42 75 96 66 105 -3 2 -24 -19 -48 -48z"/>
</g>
</g>
<g>
<g>
<path fill="#006699" stroke="none" d="M399 231 c13 -23 56 -45 75 -37 6 2 2
7 -9 11 -11 5 -33 17 -49 28 l-28 20 11 -22z"/>
</g>
</g>
<g>
<g>
<path fill="#006699" stroke="none" d="M1550 221 c-43 -9 -179 -81 -153 -81
31 0 141 42 170 66 15 13 26 23 23 22 -3 0 -21 -4 -40 -7z"/>
</g>
</g>
<g>
<g>
<path fill="#006699" stroke="none" d="M530 170 c0 -7 20 -32 44 -56 41 -41
47 -44 97 -43 58 1 57 2 -7 18 -23 6 -62 29 -88 52 -25 22 -46 35 -46 29z"/>
</g>
</g>
<g>
<g>
<path fill="#006699" stroke="none" d="M1142 100 c-38 -9 -137 -73 -121 -79 6
-2 51 18 101 43 87 44 92 53 20 36z"/>
</g>
</g>
<g>
<g>
<path fill="#006699" stroke="none" d="M1335 93 c-33 -2 -64 -8 -69 -14 -15
-14 95 -10 129 6 17 7 23 13 15 12 -8 0 -42 -2 -75 -4z"/>
</g>
</g>
<g>
<g>
<path fill="#006699" stroke="none" d="M1140 39 l-35 -20 79 6 c88 7 114 16
76 26 -45 12 -84 9 -120 -12z"/>
</g>
</g>
<g>
<g>
<path fill="#006699" stroke="none" d="M785 40 c-14 -6 4 -9 55 -9 41 0 84 4
95 9 14 6 -4 9 -55 9 -41 0 -84 -4 -95 -9z"/>
</g>
</g>
<g>
<g>
<path fill="#006699" stroke="none" d="M620 20 c8 -5 33 -9 55 -9 39 1 39 2
10 9 -16 4 -41 8 -55 9 -20 0 -22 -1 -10 -9z"/>
</g>
</g>
</g>
</svg>
